<mxfile host="app.diagrams.net" agent="Mozilla/5.0 (Macintosh; Intel Mac OS X 10_15_7) AppleWebKit/537.36 (KHTML, like Gecko) Chrome/128.0.0.0 Safari/537.36" version="24.7.6">
  <diagram id="R2lEEEUBdFMjLlhIrx00" name="Page-1">
    <mxGraphModel dx="3148" dy="2518" grid="1" gridSize="10" guides="0" tooltips="1" connect="1" arrows="1" fold="1" page="1" pageScale="1" pageWidth="1920" pageHeight="1920" math="0" shadow="0" extFonts="Permanent Marker^https://fonts.googleapis.com/css?family=Permanent+Marker">
      <root>
        <mxCell id="0" />
        <mxCell id="1" parent="0" />
        <mxCell id="pB8YxNQzwyPDCZc9yqlC-9" style="rounded=0;orthogonalLoop=1;jettySize=auto;html=1;exitX=1;exitY=0;exitDx=0;exitDy=0;entryX=0.5;entryY=1;entryDx=0;entryDy=0;" edge="1" parent="1" source="pB8YxNQzwyPDCZc9yqlC-2" target="pB8YxNQzwyPDCZc9yqlC-6">
          <mxGeometry relative="1" as="geometry" />
        </mxCell>
        <mxCell id="pB8YxNQzwyPDCZc9yqlC-12" style="rounded=0;orthogonalLoop=1;jettySize=auto;html=1;exitX=0.75;exitY=0;exitDx=0;exitDy=0;entryX=0.5;entryY=1;entryDx=0;entryDy=0;" edge="1" parent="1" source="pB8YxNQzwyPDCZc9yqlC-2" target="pB8YxNQzwyPDCZc9yqlC-11">
          <mxGeometry relative="1" as="geometry" />
        </mxCell>
        <mxCell id="pB8YxNQzwyPDCZc9yqlC-14" style="rounded=0;orthogonalLoop=1;jettySize=auto;html=1;exitX=0;exitY=0;exitDx=0;exitDy=0;entryX=0.5;entryY=1;entryDx=0;entryDy=0;" edge="1" parent="1" source="pB8YxNQzwyPDCZc9yqlC-2" target="pB8YxNQzwyPDCZc9yqlC-13">
          <mxGeometry relative="1" as="geometry" />
        </mxCell>
        <mxCell id="pB8YxNQzwyPDCZc9yqlC-16" style="rounded=0;orthogonalLoop=1;jettySize=auto;html=1;exitX=0.25;exitY=0;exitDx=0;exitDy=0;entryX=0.5;entryY=1;entryDx=0;entryDy=0;" edge="1" parent="1" source="pB8YxNQzwyPDCZc9yqlC-2" target="pB8YxNQzwyPDCZc9yqlC-15">
          <mxGeometry relative="1" as="geometry" />
        </mxCell>
        <mxCell id="pB8YxNQzwyPDCZc9yqlC-32" style="edgeStyle=orthogonalEdgeStyle;rounded=0;orthogonalLoop=1;jettySize=auto;html=1;exitX=1;exitY=0.5;exitDx=0;exitDy=0;entryX=0;entryY=0.5;entryDx=0;entryDy=0;" edge="1" parent="1" source="pB8YxNQzwyPDCZc9yqlC-2" target="pB8YxNQzwyPDCZc9yqlC-31">
          <mxGeometry relative="1" as="geometry" />
        </mxCell>
        <mxCell id="pB8YxNQzwyPDCZc9yqlC-34" style="rounded=0;orthogonalLoop=1;jettySize=auto;html=1;exitX=0.332;exitY=1.007;exitDx=0;exitDy=0;endArrow=none;endFill=0;entryX=0;entryY=0.5;entryDx=0;entryDy=0;exitPerimeter=0;" edge="1" parent="1" source="pB8YxNQzwyPDCZc9yqlC-2" target="pB8YxNQzwyPDCZc9yqlC-37">
          <mxGeometry relative="1" as="geometry">
            <mxPoint x="240" y="820" as="targetPoint" />
          </mxGeometry>
        </mxCell>
        <mxCell id="pB8YxNQzwyPDCZc9yqlC-35" style="rounded=0;orthogonalLoop=1;jettySize=auto;html=1;exitX=0.665;exitY=1.03;exitDx=0;exitDy=0;endArrow=none;endFill=0;entryX=1;entryY=0.5;entryDx=0;entryDy=0;exitPerimeter=0;" edge="1" parent="1" source="pB8YxNQzwyPDCZc9yqlC-2" target="pB8YxNQzwyPDCZc9yqlC-37">
          <mxGeometry relative="1" as="geometry">
            <mxPoint x="310" y="820" as="targetPoint" />
          </mxGeometry>
        </mxCell>
        <mxCell id="pB8YxNQzwyPDCZc9yqlC-44" style="rounded=0;orthogonalLoop=1;jettySize=auto;html=1;exitX=1;exitY=0.25;exitDx=0;exitDy=0;entryX=0;entryY=0.5;entryDx=0;entryDy=0;shape=link;" edge="1" parent="1" source="pB8YxNQzwyPDCZc9yqlC-2" target="pB8YxNQzwyPDCZc9yqlC-43">
          <mxGeometry relative="1" as="geometry" />
        </mxCell>
        <mxCell id="pB8YxNQzwyPDCZc9yqlC-73" style="rounded=0;orthogonalLoop=1;jettySize=auto;html=1;exitX=1;exitY=1;exitDx=0;exitDy=0;entryX=0;entryY=0.5;entryDx=0;entryDy=0;" edge="1" parent="1" source="pB8YxNQzwyPDCZc9yqlC-2" target="pB8YxNQzwyPDCZc9yqlC-72">
          <mxGeometry relative="1" as="geometry" />
        </mxCell>
        <mxCell id="pB8YxNQzwyPDCZc9yqlC-84" style="rounded=0;orthogonalLoop=1;jettySize=auto;html=1;exitX=1;exitY=1;exitDx=0;exitDy=0;entryX=0;entryY=0.5;entryDx=0;entryDy=0;shape=link;" edge="1" parent="1" source="pB8YxNQzwyPDCZc9yqlC-2" target="pB8YxNQzwyPDCZc9yqlC-83">
          <mxGeometry relative="1" as="geometry" />
        </mxCell>
        <mxCell id="pB8YxNQzwyPDCZc9yqlC-2" value="&lt;font style=&quot;font-size: 24px;&quot;&gt;Employee&lt;/font&gt;" style="rounded=0;whiteSpace=wrap;html=1;fillColor=#dae8fc;strokeColor=#6c8ebf;strokeWidth=5;" vertex="1" parent="1">
          <mxGeometry x="160" y="360" width="240" height="80" as="geometry" />
        </mxCell>
        <mxCell id="pB8YxNQzwyPDCZc9yqlC-45" style="rounded=0;orthogonalLoop=1;jettySize=auto;html=1;exitX=0;exitY=0;exitDx=0;exitDy=0;entryX=1;entryY=0.5;entryDx=0;entryDy=0;shape=link;" edge="1" parent="1" source="pB8YxNQzwyPDCZc9yqlC-4" target="pB8YxNQzwyPDCZc9yqlC-43">
          <mxGeometry relative="1" as="geometry" />
        </mxCell>
        <mxCell id="pB8YxNQzwyPDCZc9yqlC-46" style="rounded=0;orthogonalLoop=1;jettySize=auto;html=1;exitX=0.75;exitY=0;exitDx=0;exitDy=0;entryX=0.5;entryY=1;entryDx=0;entryDy=0;" edge="1" parent="1" source="pB8YxNQzwyPDCZc9yqlC-4" target="pB8YxNQzwyPDCZc9yqlC-47">
          <mxGeometry relative="1" as="geometry">
            <mxPoint x="1590" y="160" as="targetPoint" />
          </mxGeometry>
        </mxCell>
        <mxCell id="pB8YxNQzwyPDCZc9yqlC-48" style="rounded=0;orthogonalLoop=1;jettySize=auto;html=1;exitX=1;exitY=0;exitDx=0;exitDy=0;entryX=0.5;entryY=1;entryDx=0;entryDy=0;" edge="1" parent="1" source="pB8YxNQzwyPDCZc9yqlC-4" target="pB8YxNQzwyPDCZc9yqlC-50">
          <mxGeometry relative="1" as="geometry">
            <mxPoint x="1670" y="200" as="targetPoint" />
          </mxGeometry>
        </mxCell>
        <mxCell id="pB8YxNQzwyPDCZc9yqlC-53" style="rounded=0;orthogonalLoop=1;jettySize=auto;html=1;exitX=0.5;exitY=0;exitDx=0;exitDy=0;entryX=0.5;entryY=1;entryDx=0;entryDy=0;" edge="1" parent="1" source="pB8YxNQzwyPDCZc9yqlC-4" target="pB8YxNQzwyPDCZc9yqlC-51">
          <mxGeometry relative="1" as="geometry" />
        </mxCell>
        <mxCell id="pB8YxNQzwyPDCZc9yqlC-55" style="edgeStyle=orthogonalEdgeStyle;rounded=0;orthogonalLoop=1;jettySize=auto;html=1;exitX=1;exitY=0.5;exitDx=0;exitDy=0;" edge="1" parent="1" source="pB8YxNQzwyPDCZc9yqlC-4" target="pB8YxNQzwyPDCZc9yqlC-54">
          <mxGeometry relative="1" as="geometry" />
        </mxCell>
        <mxCell id="pB8YxNQzwyPDCZc9yqlC-57" style="rounded=0;orthogonalLoop=1;jettySize=auto;html=1;exitX=0.75;exitY=1;exitDx=0;exitDy=0;entryX=0.5;entryY=0;entryDx=0;entryDy=0;" edge="1" parent="1" source="pB8YxNQzwyPDCZc9yqlC-4" target="pB8YxNQzwyPDCZc9yqlC-56">
          <mxGeometry relative="1" as="geometry" />
        </mxCell>
        <mxCell id="pB8YxNQzwyPDCZc9yqlC-61" style="rounded=0;orthogonalLoop=1;jettySize=auto;html=1;exitX=0.5;exitY=1;exitDx=0;exitDy=0;entryX=0.5;entryY=0;entryDx=0;entryDy=0;" edge="1" parent="1" source="pB8YxNQzwyPDCZc9yqlC-4" target="pB8YxNQzwyPDCZc9yqlC-60">
          <mxGeometry relative="1" as="geometry" />
        </mxCell>
        <mxCell id="pB8YxNQzwyPDCZc9yqlC-4" value="&lt;font style=&quot;font-size: 24px;&quot;&gt;Department&lt;/font&gt;" style="rounded=0;whiteSpace=wrap;html=1;fillColor=#f8cecc;strokeColor=#b85450;strokeWidth=5;" vertex="1" parent="1">
          <mxGeometry x="1360" y="280" width="240" height="80" as="geometry" />
        </mxCell>
        <mxCell id="pB8YxNQzwyPDCZc9yqlC-67" style="rounded=0;orthogonalLoop=1;jettySize=auto;html=1;exitX=1;exitY=1;exitDx=0;exitDy=0;entryX=0.5;entryY=0;entryDx=0;entryDy=0;" edge="1" parent="1" source="pB8YxNQzwyPDCZc9yqlC-5" target="pB8YxNQzwyPDCZc9yqlC-66">
          <mxGeometry relative="1" as="geometry" />
        </mxCell>
        <mxCell id="pB8YxNQzwyPDCZc9yqlC-69" style="rounded=0;orthogonalLoop=1;jettySize=auto;html=1;exitX=0.75;exitY=1;exitDx=0;exitDy=0;entryX=0.5;entryY=0;entryDx=0;entryDy=0;" edge="1" parent="1" source="pB8YxNQzwyPDCZc9yqlC-5" target="pB8YxNQzwyPDCZc9yqlC-68">
          <mxGeometry relative="1" as="geometry" />
        </mxCell>
        <mxCell id="pB8YxNQzwyPDCZc9yqlC-70" style="rounded=0;orthogonalLoop=1;jettySize=auto;html=1;exitX=0.5;exitY=1;exitDx=0;exitDy=0;entryX=0.5;entryY=0;entryDx=0;entryDy=0;" edge="1" parent="1" source="pB8YxNQzwyPDCZc9yqlC-5" target="pB8YxNQzwyPDCZc9yqlC-71">
          <mxGeometry relative="1" as="geometry">
            <mxPoint x="1400" y="890" as="targetPoint" />
          </mxGeometry>
        </mxCell>
        <mxCell id="pB8YxNQzwyPDCZc9yqlC-91" style="rounded=0;orthogonalLoop=1;jettySize=auto;html=1;exitX=0.25;exitY=1;exitDx=0;exitDy=0;entryX=0.5;entryY=0;entryDx=0;entryDy=0;" edge="1" parent="1" source="pB8YxNQzwyPDCZc9yqlC-5" target="pB8YxNQzwyPDCZc9yqlC-88">
          <mxGeometry relative="1" as="geometry" />
        </mxCell>
        <mxCell id="pB8YxNQzwyPDCZc9yqlC-5" value="&lt;font style=&quot;font-size: 24px;&quot;&gt;Stations&lt;/font&gt;" style="rounded=0;whiteSpace=wrap;html=1;fillColor=#e1d5e7;strokeColor=#9673a6;strokeWidth=5;" vertex="1" parent="1">
          <mxGeometry x="1350" y="730" width="240" height="80" as="geometry" />
        </mxCell>
        <mxCell id="pB8YxNQzwyPDCZc9yqlC-6" value="&lt;font style=&quot;font-size: 18px;&quot;&gt;Salary&lt;/font&gt;" style="ellipse;whiteSpace=wrap;html=1;fillColor=#dae8fc;strokeColor=#6c8ebf;" vertex="1" parent="1">
          <mxGeometry x="520" y="190" width="120" height="80" as="geometry" />
        </mxCell>
        <mxCell id="pB8YxNQzwyPDCZc9yqlC-11" value="&lt;font style=&quot;font-size: 18px;&quot;&gt;Sex&lt;/font&gt;" style="ellipse;whiteSpace=wrap;html=1;fillColor=#dae8fc;strokeColor=#6c8ebf;" vertex="1" parent="1">
          <mxGeometry x="410" y="150" width="120" height="80" as="geometry" />
        </mxCell>
        <mxCell id="pB8YxNQzwyPDCZc9yqlC-13" value="&lt;font style=&quot;font-size: 18px;&quot;&gt;&lt;u&gt;emID&lt;/u&gt;&lt;/font&gt;" style="ellipse;whiteSpace=wrap;html=1;fillColor=#dae8fc;strokeColor=#6c8ebf;" vertex="1" parent="1">
          <mxGeometry x="30" y="190" width="120" height="80" as="geometry" />
        </mxCell>
        <mxCell id="pB8YxNQzwyPDCZc9yqlC-21" style="rounded=0;orthogonalLoop=1;jettySize=auto;html=1;exitX=0;exitY=0;exitDx=0;exitDy=0;entryX=0.5;entryY=1;entryDx=0;entryDy=0;" edge="1" parent="1" source="pB8YxNQzwyPDCZc9yqlC-15" target="pB8YxNQzwyPDCZc9yqlC-23">
          <mxGeometry relative="1" as="geometry">
            <mxPoint x="160" y="120" as="targetPoint" />
          </mxGeometry>
        </mxCell>
        <mxCell id="pB8YxNQzwyPDCZc9yqlC-26" style="rounded=0;orthogonalLoop=1;jettySize=auto;html=1;exitX=0.5;exitY=0;exitDx=0;exitDy=0;entryX=0.5;entryY=1;entryDx=0;entryDy=0;" edge="1" parent="1" source="pB8YxNQzwyPDCZc9yqlC-15" target="pB8YxNQzwyPDCZc9yqlC-24">
          <mxGeometry relative="1" as="geometry" />
        </mxCell>
        <mxCell id="pB8YxNQzwyPDCZc9yqlC-27" style="rounded=0;orthogonalLoop=1;jettySize=auto;html=1;exitX=1;exitY=0;exitDx=0;exitDy=0;entryX=0.5;entryY=1;entryDx=0;entryDy=0;" edge="1" parent="1" source="pB8YxNQzwyPDCZc9yqlC-15" target="pB8YxNQzwyPDCZc9yqlC-25">
          <mxGeometry relative="1" as="geometry" />
        </mxCell>
        <mxCell id="pB8YxNQzwyPDCZc9yqlC-15" value="&lt;font style=&quot;font-size: 18px;&quot;&gt;Name&lt;/font&gt;" style="ellipse;whiteSpace=wrap;html=1;fillColor=#dae8fc;strokeColor=#6c8ebf;" vertex="1" parent="1">
          <mxGeometry x="200" y="180" width="120" height="80" as="geometry" />
        </mxCell>
        <mxCell id="pB8YxNQzwyPDCZc9yqlC-23" value="&lt;font style=&quot;font-size: 18px;&quot;&gt;FirstName&lt;/font&gt;" style="ellipse;whiteSpace=wrap;html=1;fillColor=#dae8fc;strokeColor=#6c8ebf;" vertex="1" parent="1">
          <mxGeometry x="100" y="40" width="120" height="80" as="geometry" />
        </mxCell>
        <mxCell id="pB8YxNQzwyPDCZc9yqlC-24" value="&lt;font style=&quot;font-size: 18px;&quot;&gt;MidName&lt;/font&gt;" style="ellipse;whiteSpace=wrap;html=1;fillColor=#dae8fc;strokeColor=#6c8ebf;" vertex="1" parent="1">
          <mxGeometry x="220" y="40" width="120" height="80" as="geometry" />
        </mxCell>
        <mxCell id="pB8YxNQzwyPDCZc9yqlC-25" value="&lt;span style=&quot;font-size: 18px;&quot;&gt;LastName&lt;/span&gt;" style="ellipse;whiteSpace=wrap;html=1;fillColor=#dae8fc;strokeColor=#6c8ebf;" vertex="1" parent="1">
          <mxGeometry x="340" y="40" width="120" height="80" as="geometry" />
        </mxCell>
        <mxCell id="pB8YxNQzwyPDCZc9yqlC-31" value="&lt;span style=&quot;font-size: 18px;&quot;&gt;Roles&lt;/span&gt;" style="ellipse;whiteSpace=wrap;html=1;fillColor=#dae8fc;strokeColor=#6c8ebf;" vertex="1" parent="1">
          <mxGeometry x="480" y="360" width="120" height="80" as="geometry" />
        </mxCell>
        <mxCell id="pB8YxNQzwyPDCZc9yqlC-37" value="&lt;font style=&quot;font-size: 16px;&quot;&gt;SUPERVISON&lt;/font&gt;" style="rhombus;whiteSpace=wrap;html=1;fillColor=#C9D5E8;strokeColor=#6c8ebf;" vertex="1" parent="1">
          <mxGeometry x="180" y="670" width="210" height="120" as="geometry" />
        </mxCell>
        <mxCell id="pB8YxNQzwyPDCZc9yqlC-38" value="Supervisor" style="text;html=1;align=center;verticalAlign=middle;resizable=0;points=[];autosize=1;strokeColor=none;fillColor=none;" vertex="1" parent="1">
          <mxGeometry x="90" y="690" width="80" height="30" as="geometry" />
        </mxCell>
        <mxCell id="pB8YxNQzwyPDCZc9yqlC-39" value="Supervisese" style="text;html=1;align=center;verticalAlign=middle;resizable=0;points=[];autosize=1;strokeColor=none;fillColor=none;" vertex="1" parent="1">
          <mxGeometry x="395" y="690" width="90" height="30" as="geometry" />
        </mxCell>
        <mxCell id="pB8YxNQzwyPDCZc9yqlC-40" value="1" style="text;html=1;align=center;verticalAlign=middle;resizable=0;points=[];autosize=1;strokeColor=none;fillColor=none;" vertex="1" parent="1">
          <mxGeometry x="150" y="670" width="30" height="30" as="geometry" />
        </mxCell>
        <mxCell id="pB8YxNQzwyPDCZc9yqlC-42" value="N" style="text;html=1;align=center;verticalAlign=middle;resizable=0;points=[];autosize=1;strokeColor=none;fillColor=none;" vertex="1" parent="1">
          <mxGeometry x="390" y="670" width="30" height="30" as="geometry" />
        </mxCell>
        <mxCell id="pB8YxNQzwyPDCZc9yqlC-43" value="&lt;font style=&quot;font-size: 16px;&quot;&gt;WORK_FOR&lt;/font&gt;" style="rhombus;whiteSpace=wrap;html=1;fillColor=#C9D5E8;strokeColor=#6c8ebf;" vertex="1" parent="1">
          <mxGeometry x="860" y="120" width="210" height="120" as="geometry" />
        </mxCell>
        <mxCell id="pB8YxNQzwyPDCZc9yqlC-47" value="&lt;span style=&quot;font-size: 18px;&quot;&gt;&lt;u&gt;emID&lt;/u&gt;&lt;/span&gt;" style="ellipse;whiteSpace=wrap;html=1;fillColor=#f8cecc;strokeColor=#b85450;" vertex="1" parent="1">
          <mxGeometry x="1530" y="80" width="120" height="80" as="geometry" />
        </mxCell>
        <mxCell id="pB8YxNQzwyPDCZc9yqlC-50" value="&lt;span style=&quot;font-size: 18px;&quot;&gt;&lt;u&gt;DeID&lt;/u&gt;&lt;/span&gt;" style="ellipse;whiteSpace=wrap;html=1;fillColor=#f8cecc;strokeColor=#b85450;" vertex="1" parent="1">
          <mxGeometry x="1680" y="100" width="120" height="80" as="geometry" />
        </mxCell>
        <mxCell id="pB8YxNQzwyPDCZc9yqlC-51" value="&lt;span id=&quot;docs-internal-guid-f2fe5263-7fff-ce54-93a4-1c48dbdfe645&quot;&gt;&lt;span style=&quot;font-size: 11pt; font-family: Arial, sans-serif; background-color: transparent; font-variant-numeric: normal; font-variant-east-asian: normal; font-variant-alternates: normal; font-variant-position: normal; vertical-align: baseline; white-space-collapse: preserve;&quot;&gt;NameDe&lt;/span&gt;&lt;/span&gt;" style="ellipse;whiteSpace=wrap;html=1;fillColor=#f8cecc;strokeColor=#b85450;" vertex="1" parent="1">
          <mxGeometry x="1380" y="90" width="120" height="80" as="geometry" />
        </mxCell>
        <mxCell id="pB8YxNQzwyPDCZc9yqlC-54" value="&lt;span id=&quot;docs-internal-guid-fb1cd0af-7fff-bd70-7f06-6891fc8edea5&quot;&gt;&lt;span style=&quot;font-size: 11pt; font-family: Arial, sans-serif; background-color: transparent; font-variant-numeric: normal; font-variant-east-asian: normal; font-variant-alternates: normal; font-variant-position: normal; vertical-align: baseline; white-space-collapse: preserve;&quot;&gt;stations&lt;/span&gt;&lt;/span&gt;" style="ellipse;whiteSpace=wrap;html=1;fillColor=#f8cecc;strokeColor=#b85450;" vertex="1" parent="1">
          <mxGeometry x="1660" y="280" width="120" height="80" as="geometry" />
        </mxCell>
        <mxCell id="pB8YxNQzwyPDCZc9yqlC-56" value="&lt;span id=&quot;docs-internal-guid-fb1cd0af-7fff-bd70-7f06-6891fc8edea5&quot;&gt;&lt;span style=&quot;font-size: 11pt; font-family: Arial, sans-serif; background-color: transparent; font-variant-numeric: normal; font-variant-east-asian: normal; font-variant-alternates: normal; font-variant-position: normal; vertical-align: baseline; white-space-collapse: preserve;&quot;&gt;numEm&lt;/span&gt;&lt;/span&gt;" style="ellipse;whiteSpace=wrap;html=1;fillColor=#f8cecc;strokeColor=#b85450;dashed=1;" vertex="1" parent="1">
          <mxGeometry x="1600" y="390" width="120" height="80" as="geometry" />
        </mxCell>
        <mxCell id="pB8YxNQzwyPDCZc9yqlC-58" value="&amp;nbsp; N" style="text;html=1;align=center;verticalAlign=middle;resizable=0;points=[];autosize=1;strokeColor=none;fillColor=none;" vertex="1" parent="1">
          <mxGeometry x="830" y="140" width="40" height="30" as="geometry" />
        </mxCell>
        <mxCell id="pB8YxNQzwyPDCZc9yqlC-59" value="1" style="text;html=1;align=center;verticalAlign=middle;resizable=0;points=[];autosize=1;strokeColor=none;fillColor=none;" vertex="1" parent="1">
          <mxGeometry x="1070" y="150" width="30" height="30" as="geometry" />
        </mxCell>
        <mxCell id="pB8YxNQzwyPDCZc9yqlC-62" style="rounded=0;orthogonalLoop=1;jettySize=auto;html=1;exitX=0.5;exitY=1;exitDx=0;exitDy=0;shape=link;entryX=0.5;entryY=0;entryDx=0;entryDy=0;" edge="1" parent="1" source="pB8YxNQzwyPDCZc9yqlC-60" target="pB8YxNQzwyPDCZc9yqlC-5">
          <mxGeometry relative="1" as="geometry">
            <mxPoint x="1475" y="830" as="targetPoint" />
          </mxGeometry>
        </mxCell>
        <mxCell id="pB8YxNQzwyPDCZc9yqlC-60" value="&lt;font style=&quot;font-size: 16px;&quot;&gt;CONTROLS&lt;/font&gt;" style="rhombus;whiteSpace=wrap;html=1;fillColor=#C9D5E8;strokeColor=#6c8ebf;" vertex="1" parent="1">
          <mxGeometry x="1370" y="500" width="210" height="120" as="geometry" />
        </mxCell>
        <mxCell id="pB8YxNQzwyPDCZc9yqlC-63" value="1" style="text;html=1;align=center;verticalAlign=middle;resizable=0;points=[];autosize=1;strokeColor=none;fillColor=none;" vertex="1" parent="1">
          <mxGeometry x="1480" y="478" width="30" height="30" as="geometry" />
        </mxCell>
        <mxCell id="pB8YxNQzwyPDCZc9yqlC-64" value="N" style="text;html=1;align=center;verticalAlign=middle;resizable=0;points=[];autosize=1;strokeColor=none;fillColor=none;" vertex="1" parent="1">
          <mxGeometry x="1480" y="610" width="30" height="30" as="geometry" />
        </mxCell>
        <mxCell id="pB8YxNQzwyPDCZc9yqlC-66" value="&lt;font face=&quot;Arial, sans-serif&quot;&gt;&lt;span style=&quot;font-size: 14.6667px; white-space-collapse: preserve;&quot;&gt;&lt;u&gt;emID&lt;/u&gt;&lt;/span&gt;&lt;/font&gt;" style="ellipse;whiteSpace=wrap;html=1;fillColor=#e1d5e7;strokeColor=#9673a6;" vertex="1" parent="1">
          <mxGeometry x="1720" y="710" width="120" height="80" as="geometry" />
        </mxCell>
        <mxCell id="pB8YxNQzwyPDCZc9yqlC-68" value="&lt;font face=&quot;Arial, sans-serif&quot;&gt;&lt;span style=&quot;font-size: 14.6667px; white-space-collapse: preserve;&quot;&gt;ProID&lt;/span&gt;&lt;/font&gt;" style="ellipse;whiteSpace=wrap;html=1;fillColor=#e1d5e7;strokeColor=#9673a6;" vertex="1" parent="1">
          <mxGeometry x="1680" y="860" width="120" height="80" as="geometry" />
        </mxCell>
        <mxCell id="pB8YxNQzwyPDCZc9yqlC-71" value="&lt;font face=&quot;Arial, sans-serif&quot;&gt;&lt;span style=&quot;font-size: 14.6667px; white-space-collapse: preserve;&quot;&gt;Sales&lt;/span&gt;&lt;/font&gt;" style="ellipse;whiteSpace=wrap;html=1;fillColor=#e1d5e7;strokeColor=#9673a6;" vertex="1" parent="1">
          <mxGeometry x="1470" y="910" width="120" height="80" as="geometry" />
        </mxCell>
        <mxCell id="pB8YxNQzwyPDCZc9yqlC-74" style="rounded=0;orthogonalLoop=1;jettySize=auto;html=1;exitX=1;exitY=0.5;exitDx=0;exitDy=0;entryX=0;entryY=1;entryDx=0;entryDy=0;shape=link;" edge="1" parent="1" source="pB8YxNQzwyPDCZc9yqlC-72" target="pB8YxNQzwyPDCZc9yqlC-4">
          <mxGeometry relative="1" as="geometry" />
        </mxCell>
        <mxCell id="pB8YxNQzwyPDCZc9yqlC-72" value="&lt;font style=&quot;font-size: 16px;&quot;&gt;MANAGES&lt;/font&gt;" style="rhombus;whiteSpace=wrap;html=1;fillColor=#C9D5E8;strokeColor=#6c8ebf;" vertex="1" parent="1">
          <mxGeometry x="860" y="380" width="210" height="120" as="geometry" />
        </mxCell>
        <mxCell id="pB8YxNQzwyPDCZc9yqlC-75" value="1" style="text;html=1;align=center;verticalAlign=middle;resizable=0;points=[];autosize=1;strokeColor=none;fillColor=none;" vertex="1" parent="1">
          <mxGeometry x="840" y="410" width="30" height="30" as="geometry" />
        </mxCell>
        <mxCell id="pB8YxNQzwyPDCZc9yqlC-76" value="1" style="text;html=1;align=center;verticalAlign=middle;resizable=0;points=[];autosize=1;strokeColor=none;fillColor=none;" vertex="1" parent="1">
          <mxGeometry x="1050" y="410" width="30" height="30" as="geometry" />
        </mxCell>
        <mxCell id="pB8YxNQzwyPDCZc9yqlC-85" style="rounded=0;orthogonalLoop=1;jettySize=auto;html=1;exitX=1;exitY=0.5;exitDx=0;exitDy=0;entryX=0;entryY=0.5;entryDx=0;entryDy=0;shape=link;" edge="1" parent="1" source="pB8YxNQzwyPDCZc9yqlC-83" target="pB8YxNQzwyPDCZc9yqlC-5">
          <mxGeometry relative="1" as="geometry" />
        </mxCell>
        <mxCell id="pB8YxNQzwyPDCZc9yqlC-83" value="&lt;font style=&quot;font-size: 16px;&quot;&gt;WORK_ON&lt;/font&gt;" style="rhombus;whiteSpace=wrap;html=1;fillColor=#C9D5E8;strokeColor=#6c8ebf;" vertex="1" parent="1">
          <mxGeometry x="850" y="580" width="210" height="120" as="geometry" />
        </mxCell>
        <mxCell id="pB8YxNQzwyPDCZc9yqlC-86" value="M" style="text;html=1;align=center;verticalAlign=middle;resizable=0;points=[];autosize=1;strokeColor=none;fillColor=none;" vertex="1" parent="1">
          <mxGeometry x="840" y="600" width="30" height="30" as="geometry" />
        </mxCell>
        <mxCell id="pB8YxNQzwyPDCZc9yqlC-87" value="N" style="text;html=1;align=center;verticalAlign=middle;resizable=0;points=[];autosize=1;strokeColor=none;fillColor=none;" vertex="1" parent="1">
          <mxGeometry x="1060" y="610" width="30" height="30" as="geometry" />
        </mxCell>
        <mxCell id="pB8YxNQzwyPDCZc9yqlC-88" value="&lt;font face=&quot;Arial, sans-serif&quot;&gt;&lt;span style=&quot;font-size: 14.6667px; white-space-collapse: preserve;&quot;&gt;TimeStamp&lt;/span&gt;&lt;/font&gt;" style="ellipse;whiteSpace=wrap;html=1;fillColor=#e1d5e7;strokeColor=#9673a6;" vertex="1" parent="1">
          <mxGeometry x="1290" y="910" width="120" height="80" as="geometry" />
        </mxCell>
        <mxCell id="pB8YxNQzwyPDCZc9yqlC-101" style="rounded=0;orthogonalLoop=1;jettySize=auto;html=1;exitX=0;exitY=0.5;exitDx=0;exitDy=0;entryX=0.5;entryY=0;entryDx=0;entryDy=0;" edge="1" parent="1" source="pB8YxNQzwyPDCZc9yqlC-90" target="pB8YxNQzwyPDCZc9yqlC-99">
          <mxGeometry relative="1" as="geometry" />
        </mxCell>
        <mxCell id="pB8YxNQzwyPDCZc9yqlC-102" style="rounded=0;orthogonalLoop=1;jettySize=auto;html=1;exitX=1;exitY=0;exitDx=0;exitDy=0;entryX=0.5;entryY=0;entryDx=0;entryDy=0;" edge="1" parent="1" source="pB8YxNQzwyPDCZc9yqlC-90" target="pB8YxNQzwyPDCZc9yqlC-100">
          <mxGeometry relative="1" as="geometry" />
        </mxCell>
        <mxCell id="pB8YxNQzwyPDCZc9yqlC-103" style="rounded=0;orthogonalLoop=1;jettySize=auto;html=1;exitX=1;exitY=0.5;exitDx=0;exitDy=0;entryX=0.5;entryY=0;entryDx=0;entryDy=0;" edge="1" parent="1" source="pB8YxNQzwyPDCZc9yqlC-90" target="pB8YxNQzwyPDCZc9yqlC-95">
          <mxGeometry relative="1" as="geometry" />
        </mxCell>
        <mxCell id="pB8YxNQzwyPDCZc9yqlC-104" style="rounded=0;orthogonalLoop=1;jettySize=auto;html=1;exitX=0.75;exitY=1;exitDx=0;exitDy=0;entryX=0.5;entryY=0;entryDx=0;entryDy=0;" edge="1" parent="1" source="pB8YxNQzwyPDCZc9yqlC-90" target="pB8YxNQzwyPDCZc9yqlC-96">
          <mxGeometry relative="1" as="geometry" />
        </mxCell>
        <mxCell id="pB8YxNQzwyPDCZc9yqlC-105" style="rounded=0;orthogonalLoop=1;jettySize=auto;html=1;exitX=0.25;exitY=1;exitDx=0;exitDy=0;entryX=0.5;entryY=0;entryDx=0;entryDy=0;" edge="1" parent="1" source="pB8YxNQzwyPDCZc9yqlC-90" target="pB8YxNQzwyPDCZc9yqlC-98">
          <mxGeometry relative="1" as="geometry" />
        </mxCell>
        <mxCell id="pB8YxNQzwyPDCZc9yqlC-90" value="&lt;font style=&quot;font-size: 24px;&quot;&gt;Products&lt;/font&gt;" style="shape=ext;margin=3;double=1;whiteSpace=wrap;html=1;align=center;fillColor=#d5e8d4;strokeColor=#82b366;strokeWidth=5;" vertex="1" parent="1">
          <mxGeometry x="700" y="1080" width="270" height="90" as="geometry" />
        </mxCell>
        <mxCell id="pB8YxNQzwyPDCZc9yqlC-94" value="" style="rounded=0;orthogonalLoop=1;jettySize=auto;html=1;shape=link;" edge="1" parent="1" source="pB8YxNQzwyPDCZc9yqlC-93" target="pB8YxNQzwyPDCZc9yqlC-90">
          <mxGeometry relative="1" as="geometry" />
        </mxCell>
        <mxCell id="pB8YxNQzwyPDCZc9yqlC-106" style="rounded=0;orthogonalLoop=1;jettySize=auto;html=1;exitX=0.5;exitY=0;exitDx=0;exitDy=0;entryX=0;entryY=1;entryDx=0;entryDy=0;shape=link;" edge="1" parent="1" source="pB8YxNQzwyPDCZc9yqlC-93" target="pB8YxNQzwyPDCZc9yqlC-5">
          <mxGeometry relative="1" as="geometry" />
        </mxCell>
        <mxCell id="pB8YxNQzwyPDCZc9yqlC-93" value="&lt;font style=&quot;font-size: 22px;&quot;&gt;DEPENDENT_OF&lt;/font&gt;" style="shape=rhombus;double=1;perimeter=rhombusPerimeter;whiteSpace=wrap;html=1;align=center;fillColor=#C9D5E8;" vertex="1" parent="1">
          <mxGeometry x="690" y="840" width="290" height="160" as="geometry" />
        </mxCell>
        <mxCell id="pB8YxNQzwyPDCZc9yqlC-95" value="&lt;font face=&quot;Arial, sans-serif&quot;&gt;&lt;span style=&quot;font-size: 14.6667px; white-space-collapse: preserve;&quot;&gt;Profit&lt;/span&gt;&lt;/font&gt;" style="ellipse;whiteSpace=wrap;html=1;fillColor=#d6e8d5;strokeColor=#9673a6;" vertex="1" parent="1">
          <mxGeometry x="1010" y="1230" width="120" height="80" as="geometry" />
        </mxCell>
        <mxCell id="pB8YxNQzwyPDCZc9yqlC-96" value="&lt;font face=&quot;Arial, sans-serif&quot;&gt;&lt;span style=&quot;font-size: 14.6667px; white-space-collapse: preserve;&quot;&gt;Sales&lt;/span&gt;&lt;/font&gt;" style="ellipse;whiteSpace=wrap;html=1;fillColor=#d6e8d5;strokeColor=#9673a6;" vertex="1" parent="1">
          <mxGeometry x="830" y="1250" width="120" height="80" as="geometry" />
        </mxCell>
        <mxCell id="pB8YxNQzwyPDCZc9yqlC-98" value="&lt;font face=&quot;Arial, sans-serif&quot;&gt;&lt;span style=&quot;font-size: 14.6667px; white-space-collapse: preserve;&quot;&gt;Name&lt;/span&gt;&lt;/font&gt;" style="ellipse;whiteSpace=wrap;html=1;fillColor=#d6e8d5;strokeColor=#9673a6;" vertex="1" parent="1">
          <mxGeometry x="650" y="1220" width="120" height="80" as="geometry" />
        </mxCell>
        <mxCell id="pB8YxNQzwyPDCZc9yqlC-99" value="&lt;font face=&quot;Arial, sans-serif&quot;&gt;&lt;span style=&quot;font-size: 14.6667px; white-space-collapse: preserve;&quot;&gt;&lt;u&gt;ProID&lt;/u&gt;&lt;/span&gt;&lt;/font&gt;" style="ellipse;whiteSpace=wrap;html=1;fillColor=#d6e8d5;strokeColor=#9673a6;" vertex="1" parent="1">
          <mxGeometry x="500" y="1190" width="120" height="80" as="geometry" />
        </mxCell>
        <mxCell id="pB8YxNQzwyPDCZc9yqlC-100" value="&lt;font face=&quot;Arial, sans-serif&quot;&gt;&lt;span style=&quot;font-size: 14.6667px; white-space-collapse: preserve;&quot;&gt;Start-date&lt;/span&gt;&lt;/font&gt;" style="ellipse;whiteSpace=wrap;html=1;fillColor=#d6e8d5;strokeColor=#9673a6;dashed=1;" vertex="1" parent="1">
          <mxGeometry x="1120" y="1140" width="120" height="80" as="geometry" />
        </mxCell>
        <mxCell id="pB8YxNQzwyPDCZc9yqlC-107" value="N" style="text;html=1;align=center;verticalAlign=middle;resizable=0;points=[];autosize=1;strokeColor=none;fillColor=none;" vertex="1" parent="1">
          <mxGeometry x="830" y="800" width="30" height="30" as="geometry" />
        </mxCell>
        <mxCell id="pB8YxNQzwyPDCZc9yqlC-108" value="M" style="text;html=1;align=center;verticalAlign=middle;resizable=0;points=[];autosize=1;strokeColor=none;fillColor=none;" vertex="1" parent="1">
          <mxGeometry x="840" y="1000" width="30" height="30" as="geometry" />
        </mxCell>
      </root>
    </mxGraphModel>
  </diagram>
</mxfile>
